PathFileType	3	(X/Y/Z)	D:\minhoCalibration\240510\subject4_KPNP\preferred\preferred19.trc
DataRate	CameraRate	NumFrames	NumMarkers	Units	OrigDataRate	OrigDataStartFrame	OrigNumFrames
200.0	200.0	25	10	mm	200.0	162	95	
Frame#	Time	Left_Ankle_Outer1			Left_Ankle_Inner1			Left_Knee_Outer1			Left_Knee_Inner1			Left_Wrist1			Right_Wrist1			Right_Knee_Inner1			Right_Knee_Outer1			Right_Ankle_Inner1			Right_Ankle_Outer1			
		X1	Y1	Z1	X2	Y2	Z2	X3	Y3	Z3	X4	Y4	Z4	X5	Y5	Z5	X6	Y6	Z6	X7	Y7	Z7	X8	Y8	Z8	X9	Y9	Z9	X10	Y10	Z10	
162	0.8	-589.3089	388.79581	1552.0095	-521.72852	333.7536	1495.5391	-729.85138	581.15094	1103.342	-626.29132	544.05865	1075.1741	-606.25989	1020.5173	1229.3986	-291.44543	904.3562	1354.2045	-369.12595	505.05804	1112.1493	-296.68741	505.76852	1195.2932	-534.62988	62.467175	1239.6194	-493.29135	69.680405	1277.8539
163	0.805	-591.49707	401.39752	1529.9565	-522.50281	346.24295	1474.7792	-725.09985	593.9762	1079.9305	-619.7854	557.61682	1053.446	-600.37976	1028.0807	1220.9094	-292.21933	906.72351	1356.7286	-368.83066	506.43347	1115.2096	-297.55457	507.34485	1199.2751	-534.03345	63.29734	1239.863	-492.80917	70.345741	1278.2654
164	0.81	-594.31732	414.20639	1507.927	-523.74786	358.56659	1453.8505	-719.5379	607.39008	1056.5427	-613.15002	571.13757	1031.9901	-594.54016	1036.1266	1212.8116	-291.28595	909.92651	1359.2012	-368.07193	507.66705	1117.6094	-298.49384	509.13925	1203.2715	-533.53564	64.326073	1240.1578	-492.66074	71.107079	1278.736
165	0.815	-597.65076	427.15317	1485.761	-525.84619	371.64658	1433.1392	-712.99927	621.44788	1033.3035	-605.2774	585.98962	1010.9238	-588.04718	1043.9232	1204.9089	-293.12396	912.12177	1361.6021	-367.96527	509.12201	1120.2523	-299.20349	510.95288	1206.9576	-532.85315	65.357613	1240.1132	-492.57901	72.095238	1279.1389
166	0.82	-601.69312	440.32352	1463.4736	-528.82086	384.84	1412.5428	-706.01941	636.37024	1009.9542	-597.7594	600.68427	990.86188	-581.46649	1051.8138	1197.4454	-294.50034	914.56476	1364.2052	-368.08078	510.45752	1123.2161	-300.01837	512.85382	1210.3972	-532.34741	66.612572	1240.1815	-492.48282	73.188179	1279.5118
167	0.825	-606.68274	453.75388	1441.2781	-532.57483	398.0708	1391.9652	-698.00189	652.02344	987.06689	-588.96533	616.28894	970.78992	-574.63336	1059.7286	1190.3627	-295.97424	917.05713	1366.8439	-367.73285	511.92737	1125.5559	-300.27359	514.75146	1214.0192	-531.75671	68.006676	1240.0657	-492.34869	74.317131	1279.7317
168	0.83	-612.29285	467.2764	1418.9712	-537.37061	410.93451	1371.262	-688.98987	668.24194	964.82666	-579.36688	632.5105	951.20935	-567.65594	1067.6494	1183.7073	-297.73639	919.41864	1369.5121	-367.33289	513.56567	1127.8066	-301.05402	516.68811	1217.1912	-532.27026	69.551758	1240.4686	-492.24966	75.59417	1279.87
169	0.835	-618.72479	481.2532	1396.3799	-542.7431	424.89703	1351.1847	-678.86407	685.02966	942.86139	-569.66357	648.89178	932.26569	-560.47693	1075.4875	1177.4395	-299.651	921.65985	1372.1611	-366.50037	515.13098	1129.7786	-301.38779	518.71149	1220.434	-531.57849	71.036568	1239.6433	-492.2681	77.015404	1279.8195
170	0.84	-625.96075	495.46552	1373.8539	-548.69714	438.733	1331.2693	-668.40729	703.1593	921.11932	-560.81342	664.89966	915.12183	-553.27203	1083.4258	1171.4867	-301.44705	924.06519	1374.8983	-365.59894	516.95245	1131.7786	-301.60657	520.57642	1223.6046	-531.32874	72.857735	1239.0507	-492.55978	78.5242	1279.9006
171	0.845	-633.73236	509.81653	1350.9991	-555.7489	452.86398	1311.2515	-657.06415	721.914	900.23914	-547.23572	682.76093	896.04999	-546.11694	1091.0271	1166.2581	-305.67749	925.42206	1378.9913	-363.64789	517.86041	1132.6959	-301.52359	522.31244	1226.7572	-530.14685	74.347168	1237.726	-492.43826	80.108452	1279.2251
172	0.85	-641.45947	523.80762	1328.1388	-563.25	467.12286	1291.1998	-644.10931	740.95203	879.8056	-535.97986	699.66626	879.69165	-538.72009	1098.3867	1161.3564	-307.75598	927.56549	1381.3385	-361.46075	519.92609	1133.7432	-301.36172	524.27075	1229.9938	-530.21362	76.539543	1237.1531	-492.6759	81.716934	1278.9661
173	0.855	-650.29608	539.23083	1305.2059	-571.21399	481.2356	1271.3287	-630.62775	760.77893	860.45734	-523.32025	717.67041	864.16187	-530.71289	1105.3448	1156.5592	-310.92691	928.67084	1384.5366	-359.754	522.01245	1135.7357	-301.05179	526.09705	1232.6851	-530.02185	78.700996	1235.8301	-492.79874	83.351753	1278.1604
174	0.86	-659.30231	554.71552	1281.7233	-580.30017	495.88797	1250.4604	-616.06812	781.1615	841.99829	-510.17075	735.32544	849.35022	-523.62274	1112.5768	1152.7512	-314.07162	930.09515	1387.1708	-356.16251	523.47021	1135.8657	-301.05063	527.7782	1235.0972	-529.43005	80.170258	1234.0637	-493.13651	85.193993	1277.2947
175	0.865	-668.86578	570.58356	1257.5707	-590.30139	509.8096	1229.3524	-600.66028	801.82404	824.66071	-496.54041	752.89197	836.01715	-515.40283	1119.2627	1148.6401	-317.36807	930.80927	1389.6299	-352.94458	525.13953	1136.9609	-300.66443	529.44379	1237.3989	-528.24988	82.112206	1231.9263	-493.55145	87.172958	1276.2344
176	0.87	-678.659	587.1001	1233.1813	-600.78955	524.62549	1207.9996	-584.0097	822.56995	808.70117	-480.95087	770.88721	823.04114	-507.62122	1125.8718	1145.2717	-321.35999	931.41718	1392.4054	-348.54721	526.0188	1136.7247	-300.16064	531.11139	1239.585	-528.33893	84.870888	1230.6653	-494.08459	89.279457	1275.0968
177	0.875	-688.69983	603.7627	1207.9351	-611.6402	538.81818	1185.1661	-565.73578	843.20129	794.28156	-466.41013	787.57043	812.02179	-499.80832	1132.2048	1141.9532	-325.69751	931.72888	1395.3527	-343.93399	527.14447	1137.4303	-299.31921	532.90308	1242.1644	-527.74969	87.008026	1228.6312	-494.47568	91.389153	1273.7352
178	0.88	-699.03711	621.12732	1181.9789	-623.33704	553.60034	1161.5264	-546.86041	864.46033	780.80609	-449.81927	805.26385	801.51672	-492.42401	1138.1039	1139.661	-330.56982	931.7804	1398.1467	-339.58392	528.56573	1137.8154	-299.22754	534.28491	1242.9055	-527.01813	89.173363	1226.4626	-494.70544	93.56839	1272.2064
179	0.885	-709.58972	638.76068	1155.1709	-636.04095	568.67255	1137.0679	-528.54645	885.76892	769.58362	-435.09024	820.58533	793.78271	-485.17126	1143.4282	1137.7129	-335.85733	931.45758	1400.8757	-334.918	529.94098	1138.2085	-298.68689	535.85956	1244.1627	-527.77264	92.136131	1224.2601	-494.87228	95.6745	1270.5406
180	0.89	-720.4541	656.81006	1127.4264	-648.47333	584.10217	1110.8914	-508.87186	906.08398	759.96686	-419.96545	836.34015	786.70935	-478.64746	1148.0472	1136.1781	-341.80005	930.61383	1402.0302	-329.42715	531.02478	1137.8811	-298.40045	537.4259	1244.6954	-526.90948	94.335114	1221.9183	-494.91873	97.767006	1268.8228
181	0.895	-731.10126	675.37494	1097.8121	-662.91113	599.30139	1083.0278	-488.72565	925.57416	752.65302	-403.64264	851.7475	780.53119	-470.78452	1153.3595	1134.373	-348.00122	929.89648	1404.0896	-325.41205	532.1286	1138.3286	-298.18335	538.89935	1244.9674	-526.07764	96.459885	1219.6426	-494.94904	99.78701	1267.0356
182	0.9	-741.60455	694.16425	1067.0951	-675.83752	616.11713	1052.9194	-468.57474	944.54504	746.63745	-388.46552	865.82855	775.8606	-464.6185	1157.4612	1133.7765	-354.6012	928.99139	1406.015	-321.27707	533.2157	1138.4939	-297.42728	540.95087	1246.1371	-525.26404	98.409393	1217.4718	-494.90222	101.69656	1265.2865
183	0.905	-752.40594	713.72998	1034.986	-689.05457	633.21057	1021.7733	-448.30182	962.51471	742.35162	-373.84424	879.15375	772.26031	-458.41144	1161.2715	1132.9576	-361.37427	927.93579	1407.4005	-317.29425	534.36902	1138.359	-297.54688	542.15601	1245.7698	-524.41187	99.913071	1215.1252	-494.68811	103.41507	1263.5485
184	0.91	-762.33295	733.34778	1001.1105	-701.65692	650.87592	988.94904	-428.18204	979.3844	739.81366	-359.45432	891.62085	769.63049	-452.41318	1164.6915	1132.3853	-368.36313	926.92126	1408.4921	-314.79095	535.5	1138.5795	-297.67673	543.52002	1245.8055	-523.46039	101.69352	1213.5355	-494.40305	104.99824	1262.187
185	0.915	-771.58868	753.5592	965.1825	-713.08429	668.99237	954.31848	-408.39227	994.57422	738.79645	-345.51175	903.11176	768.0495	-446.74335	1167.7198	1131.7336	-375.49014	925.83984	1409.1315	-312.08142	536.59869	1137.9325	-298.0827	544.89844	1245.7068	-522.60272	103.30311	1212.3213	-493.95038	106.36352	1261.078
186	0.92	-779.72681	774.67242	927.37512	-724.0293	688.37213	917.08942	-388.78671	1008.2028	739.46521	-332.25226	913.62903	767.2804	-441.49539	1170.5164	1131.3154	-382.67078	924.88116	1409.6924	-310.41568	537.59778	1137.1976	-298.72623	546.09418	1245.5546	-522.50476	104.49701	1211.946	-493.58945	107.5808	1260.2606
